<svg xmlns="http://www.w3.org/2000/svg" viewBox="0 0 48 48" width="48" height="48">
	<style>
		tspan { white-space:pre }
		.shp0 { opacity: 0.18;fill: #000000 } 
	</style>
	<path id="Layer" class="shp0" d="M32.15 24.11C30 20.39 25.54 21.59 21.77 21.91C19.43 22.02 18.37 19.65 20.86 18.01C22.24 17.1 23.96 16.67 25.56 16.37L24.54 13.16C22.69 13.59 21.16 14.18 19.88 14.87L18.87 13.11L17.13 14.11L18.2 15.96C15.1 18.36 14.52 21.52 15.88 23.88C18.32 28.1 23.62 25.9 25.67 25.72C28.44 25.43 29.21 27.71 27.48 29.31C25.98 30.7 23.38 31.29 21.36 31.6L22.21 34.91C24.22 34.81 26.33 34.17 28.14 33.16L29.13 34.89L30.87 33.89L29.81 32.07C32.45 30.01 33.87 27.08 32.15 24.11L32.15 24.11Z" />
</svg>