<svg xmlns="http://www.w3.org/2000/svg" viewBox="0 0 24 24" width="24" height="24">
	<style>
		tspan { white-space:pre }
		.shp0 { fill: #f88f01 } 
	</style>
	<path id="Layer" fill-rule="evenodd" class="shp0" d="M24 14.08C18 18.74 10.02 14.04 4.16 19L0 9.92C5.46 4.65 13.01 9.42 19.84 5L24 14.08ZM7 15.48C11.39 14.06 16.07 15.21 19.94 14.16C20.13 13.31 20.51 12.5 21.04 11.83L19.73 8.96C18.94 8.85 18.11 8.51 17.43 8.04C17.13 8.13 16.83 8.23 16.52 8.31C12.21 9.38 8.02 8.46 4.67 9.3C4.47 9.34 4.29 9.4 4.1 9.46C3.95 10.43 3.5 11.51 2.93 12.12L4.12 14.71C4.99 14.64 6.18 14.96 7 15.48ZM14.32 11.39C14.85 12.6 14.29 13.76 13.08 14.05C11.72 14.39 10.06 13.54 9.48 12.19C8.93 10.92 9.58 9.71 10.91 9.49C12.25 9.26 13.78 10.12 14.32 11.39ZM12.64 12.97C13.03 12.82 13.26 12.52 13.06 12.07C12.81 11.52 12.18 11.48 11.66 11.36C11.34 11.28 11.22 10.94 11.58 10.84L11.65 10.82C11.84 10.79 12.05 10.81 12.25 10.83L12.15 10.39C11.89 10.37 11.68 10.38 11.49 10.41L11.37 10.14L11.12 10.19L11.24 10.47C10.79 10.64 10.67 11.01 10.83 11.36C11.11 11.99 11.86 11.94 12.15 12C12.53 12.08 12.61 12.4 12.35 12.53L12.21 12.58C11.99 12.62 11.71 12.59 11.48 12.55L11.56 13C11.83 13.08 12.13 13.08 12.39 13.04L12.51 13.29L12.76 13.24L12.64 12.97Z" />
</svg>