<svg xmlns="http://www.w3.org/2000/svg" viewBox="0 0 24 24" width="24" height="24">
	<style>
		tspan { white-space:pre }
		.shp0 { fill: #f88f01 } 
	</style>
	<path id="Layer" class="shp0" d="M19 16.17C19 11.88 14.54 10.68 11.11 9.07C9.03 8 9.3 5.42 12.27 5.24C13.93 5.14 15.63 5.63 17.16 6.17L17.88 2.88C16.07 2.33 14.45 2.07 13 2.04L13 0L11 0L11 2.13C7.11 2.67 5.03 5.11 5.03 7.83C5.03 12.71 10.72 13.45 12.59 14.32C15.13 15.46 14.66 17.82 12.36 18.34C10.37 18.79 7.82 18 5.91 17.26L5 20.55C6.79 21.47 8.93 21.97 11 22L11 24L13 24L13 21.89C16.31 21.43 19 19.6 19 16.17L19 16.17Z" />
</svg>